Simulation
nRows=15
nColumns=15
endheader
time  TH_x TH_y TH_z SC_y  SC_z  SC_x  AC_y  AC_z  AC_x  GH_y  GH_z  GH_yy  EL_x  PS_y
2.6910411985018725  0.000000  0.000000  0.000000  -25.58829648044908  -0.08992642634410224  -6.421426315260042  56.48609424298647  8.716398690943569  2.874053177788367  3.3630138268348593  8.703800850708129  28.25058377542281  15.893259168773277  120.000000
2.7312059925093632  0.000000  0.000000  0.000000  -25.341730514827052  -0.1644759080007001  -6.484950958928531  57.03088297945875  9.11110950617301  3.2128822464845226  7.206893831123366  7.043872040307856  26.621805772288443  16.640822028171826  120.000000
2.771370786516854  0.000000  0.000000  0.000000  -25.269172255224476  -0.16843371082650474  -6.485058493516029  57.50726127588258  9.48188435739324  3.520071611971785  13.366732943817345  5.551740731355925  22.43325280449088  17.303428705794953  120.000000
2.8115355805243447  0.000000  0.000000  0.000000  -25.33418146272931  -0.11389432840994627  -6.447259354273332  57.91269473882279  9.815728377519836  3.786004222129833  23.334915442619558  4.257848675546651  14.198170362258457  17.856036472803275  120.000000
2.851700374531835  0.000000  0.000000  0.000000  -25.500320514252994  -0.014115447355256078  -6.385889983351924  58.247334993394595  10.107807575428934  4.00696480090937  39.566314169361036  3.248832333874264  -0.5231274054529961  18.283215044330532  120.000000
2.8918651685393257  0.000000  0.000000  0.000000  -25.733797952525943  0.11867154872751076  -6.3055808316926365  58.516002464477545  10.36151830651956  4.184213631952356  63.83644840316733  2.6931522540988704  -23.48736704054276  18.580551297346926  120.000000
2.9320299625468165  0.000000  0.000000  0.000000  -26.005408494607817  0.2735121680390451  -6.204858019448477  58.725495318329756  10.584255446061126  4.322397930599735  90.73805364168973  2.7241264686270457  -49.26887357341485  18.753750176920384  120.000000
2.972194756554307  0.000000  0.000000  0.000000  -26.29221733151197  0.4403930776107602  -6.081012840767561  58.882957855247085  10.783109682702785  4.427207579423412  111.15538545170598  3.2054963013225923  -68.73529012677693  18.816363139325244  120.000000
3.012359550561798  0.000000  0.000000  0.000000  -26.57691047930335  0.6115726291073005  -5.933290182456071  58.996364961447874  10.96258865311817  4.503122721952223  124.05096476224091  3.88255235857934  -80.83267863435802  18.788451777966262  120.000000
3.0525243445692882  0.000000  0.000000  0.000000  -26.84752106531858  0.781263929066938  -5.7639792280853  59.074628740921185  11.124400382085602  4.5520751468769545  132.13405311815237  4.598873992856146  -88.2542632984784  18.69361955587425  120.000000
3.092689138576779  0.000000  0.000000  0.000000  -27.09642981270297  0.9445178487369924  -5.576988065043836  59.125563827197695  11.268019121126631  4.575330338579208  137.43954122532648  5.284334638992957  -93.01898566870072  18.555991578460898  120.000000
3.1328539325842697  0.000000  0.000000  0.000000  -27.319807021682077  1.096533231171153  -5.3769126887171685  59.1546174337802  11.391351786824838  4.575236904570408  141.0989358642668  5.908787979150784  -96.24274799804284  18.397562144447562  120.000000
3.1730187265917604  0.000000  0.000000  0.000000  -27.516367332595006  1.2333088863633033  -5.168900263931123  59.165532355231775  11.491487651696385  4.554561227872742  143.73121557891213  6.459582905661124  -98.52986360582476  18.23548274448514  120.000000
3.2131835205992507  0.000000  0.000000  0.000000  -27.68637782560269  1.3521743112740545  -4.958245948897407  59.16146931868247  11.565586732005523  4.515642502259536  145.68850039342544  6.932109524073664  -100.21876278266386  18.081020977246645  120.000000
3.2533483146067415  0.000000  0.000000  0.000000  -27.830857792031512  1.4517871200432546  -4.749870625611492  59.144688910997125  11.611451655986125  4.460667576014995  147.18209114659322  7.325210483908059  -101.50816528116997  17.939595716558625  120.000000
